# xmcd
#
# Track frame offsets: 
#        182
#        73957
#        123810
#        160467
#        223897
#        262217
#
# Disc length: 3933 seconds
#
# Revision: 4
# Processed by: cddbd v1.5.2PL0 Copyright (c) Steve Scherf et al.
# Submitted via: ExactAudioCopy v0.99pb4
#
DISCID=620f5b06
DTITLE=Miles Davis - Miles Davis Story CD2
DYEAR=1991
DGENRE=Jazz
TTITLE0=Concierto de Aranjuez
TTITLE1=Come get it
TTITLE2=Petits machins (Little Stuff)
TTITLE3=Miles runs the voodoo down
TTITLE4=Decoy
TTITLE5=Intro MD 1-Sommething's on your mind-MD 2
EXTD=
EXTT0=
EXTT1=
EXTT2=
EXTT3=
EXTT4=
EXTT5=
PLAYORDER=
